<?xml version="1.0" standalone="no"?>
<!DOCTYPE svg PUBLIC "-//W3C//DTD SVG 20010904//EN"
 "http://www.w3.org/TR/2001/REC-SVG-20010904/DTD/svg10.dtd">
<svg version="1.0" xmlns="http://www.w3.org/2000/svg"
 width="256.000000pt" height="256.000000pt" viewBox="0 0 256.000000 256.000000"
 preserveAspectRatio="xMidYMid meet">
<metadata>
Created by potrace 1.11, written by Peter Selinger 2001-2013
</metadata>
<g transform="translate(0.000000,256.000000) scale(0.100000,-0.100000)"
fill="#000000" stroke="none">
<path d="M1140 2554 c-560 -72 -997 -473 -1116 -1024 -26 -119 -26 -381 0
-500 110 -512 494 -896 1006 -1006 119 -26 381 -26 500 0 512 110 896 494
1006 1006 26 119 26 381 0 500 -109 505 -485 887 -986 1001 -83 19 -331 33
-410 23z m-267 -822 c46 -23 72 -43 82 -63 14 -27 14 -30 0 -35 -9 -4 -78 -1
-153 5 -149 14 -209 7 -268 -30 -150 -92 -225 -378 -143 -540 41 -82 112 -114
231 -106 120 8 208 59 270 156 36 57 35 68 -4 76 -56 12 -104 50 -132 106 -72
145 18 301 165 287 64 -6 97 -31 129 -93 18 -36 24 -66 25 -112 0 -35 3 -63 6
-63 4 0 19 6 34 14 15 8 34 12 41 9 37 -14 -5 -103 -61 -130 -29 -14 -37 -25
-51 -72 -35 -120 -118 -233 -212 -288 -150 -88 -396 -86 -527 5 -165 115 -202
380 -85 617 68 138 163 225 300 273 55 19 81 22 175 20 102 -3 116 -6 178 -36z
m1377 12 c29 -12 48 -29 65 -59 29 -48 31 -81 10 -132 -38 -90 -112 -132 -289
-162 l-89 -16 -14 -40 c-45 -128 -58 -321 -25 -385 13 -27 26 -37 56 -45 35
-8 40 -7 62 18 19 22 24 40 24 81 0 45 -5 60 -34 96 -29 36 -33 47 -25 68 15
40 50 83 74 92 58 22 92 -19 124 -149 34 -136 72 -156 138 -73 21 26 43 50 48
54 13 10 45 -29 45 -55 0 -34 -40 -105 -71 -128 -34 -24 -113 -28 -151 -8 -17
9 -23 9 -26 0 -10 -29 -60 -76 -101 -94 -58 -25 -178 -27 -236 -3 -48 20 -99
68 -115 107 l-12 29 -44 -46 c-83 -84 -222 -124 -332 -94 -56 14 -119 71 -132
118 -25 90 1 230 59 320 65 102 156 165 256 177 90 11 137 -35 116 -113 -17
-60 -47 -73 -102 -43 -37 21 -41 22 -64 7 -35 -23 -52 -52 -69 -121 -35 -130
-11 -192 75 -202 59 -7 97 13 170 87 52 53 56 61 68 131 8 41 27 112 43 159
28 79 29 85 12 95 -42 24 -77 62 -71 78 5 12 13 14 44 6 92 -22 88 -23 102 8
40 88 152 203 233 238 44 19 128 19 178 -1z"/>
<path d="M913 1473 c-8 -3 -13 -23 -13 -49 0 -34 6 -51 30 -76 l29 -33 1 67
c0 47 -4 71 -16 82 -8 9 -16 16 -17 15 -1 0 -8 -3 -14 -6z"/>
<path d="M2140 1628 c-14 -5 -40 -23 -58 -41 -33 -31 -92 -109 -92 -121 0 -20
112 16 158 51 37 28 53 61 45 91 -6 26 -21 32 -53 20z"/>
</g>
</svg>
